# xmcd
#
# Track frame offsets:
#	150
#	15256
#	30534
#	43788
#	59221
#	71794
#	86851
#	100711
#	116599
#	129281
#	150502
#
# Disc length: 2212 seconds
#
# Revision: 1
# Processed by: cddbd v1.5.2PL0 Copyright (c) Steve Scherf et al.
# Submitted via: audiograbber 1.83.01
#
DISCID=8c08a20b
DTITLE=Love and Theft - Whiskey on My Breath
DYEAR=2014
DGENRE=Country
TTITLE0=Anytime, Anywhere
TTITLE1=Can't Stop Smiling
TTITLE2=Can't Wait for the Weekend
TTITLE3=Easy
TTITLE4=Everybody Drives Drunk
TTITLE5=Hang out Hungover
TTITLE6=Let's Get Drunk and Make Friends
TTITLE7=Like I Feel It
TTITLE8=Tan Lines
TTITLE9=Whiskey on My Breath
TTITLE10=Wrong Baby Wrong
EXTD=
EXTT0=
EXTT1=
EXTT2=
EXTT3=
EXTT4=
EXTT5=
EXTT6=
EXTT7=
EXTT8=
EXTT9=
EXTT10=
PLAYORDER=
